<svg width="143" height="16" viewBox="0 0 143 16" fill="none" xmlns="http://www.w3.org/2000/svg">
<path d="M10.4312 15.9999L0 9.73175V6.24944L10.4312 0.000137329V4.08479L3.16326 7.92471L10.4312 11.9152V15.9811V15.9999Z" fill="#39B54A"/>
<path d="M16.0078 15.9999L21.9578 0.000137329H25.4223L19.4158 15.9999H16.0266H16.0078Z" fill="#39B54A"/>
<path d="M30.125 15.9986V11.9328L37.4118 7.96111L30.125 4.04588V0.0177155L40.5751 6.26702V9.71167L30.125 15.9986Z" fill="#39B54A"/>
<path d="M49.5751 1.46903H59.159V4.31134H52.9455V6.47601H59.0084V9.33714H52.9455V11.69H59.159V14.5323H49.5751V1.46903Z" fill="black"/>
<path d="M70.8944 10.1251L68.0512 14.5108H64.0594L68.616 7.80979L64.3419 1.44755H68.3148L70.8755 5.53218L73.3986 1.44755H77.3903L73.135 7.79096L77.6728 14.5108H73.6999L70.8567 10.1251H70.8944Z" fill="black"/>
<path d="M84.931 4.40546H81.2782V1.46903H91.9542V4.40546H88.3202V14.5323H84.9499V4.40546H84.931Z" fill="black"/>
<path d="M102.357 1.24247C106.349 1.24247 109.324 4.0283 109.324 8C109.324 11.9717 106.349 14.7575 102.357 14.7575C98.3657 14.7575 95.3719 11.9717 95.3719 8C95.3719 4.0283 98.3657 1.24247 102.357 1.24247ZM102.357 4.21654C100.192 4.21654 98.7988 5.85415 98.7988 8C98.7988 10.1458 100.192 11.7835 102.357 11.7835C104.523 11.7835 105.897 10.127 105.897 8C105.897 5.87297 104.504 4.21654 102.357 4.21654Z" fill="black"/>
<path d="M118.865 10.0874H117.133V14.5108H113.763V1.44755H120.296C123.196 1.44755 124.834 3.36751 124.834 5.79571C124.834 8.07332 123.441 9.278 122.236 9.71094L124.89 14.5108H121.031L118.846 10.0874H118.865ZM119.807 4.30867H117.152V7.2451H119.807C120.692 7.2451 121.426 6.68039 121.426 5.77688C121.426 4.87336 120.673 4.30867 119.807 4.30867Z" fill="black"/>
<path d="M133.793 9.26186L128.841 1.46903H132.644L135.487 6.28779L138.293 1.46903H142.115L137.182 9.26186V14.5323H133.812V9.26186H133.793Z" fill="black"/>
</svg>
