<svg width="144" height="120" viewBox="0 0 144 120" fill="none" xmlns="http://www.w3.org/2000/svg">
<g clip-path="url(#clip0_12_821)">
<path d="M29.7552 79.7104L102.685 98.3536C104.347 98.7691 106.292 99.0147 108.219 97.8813C110.146 96.748 119.401 89.797 121.705 88.0214C124.01 86.2459 124.274 84.5459 120.723 83.5826C117.172 82.6193 50.0228 66.1861 50.0228 66.1861C48.3795 65.8272 46.6795 66.0728 45.2251 66.885L29.2452 75.8004C27.5641 76.726 27.9041 79.2382 29.7741 79.6915L29.7552 79.7104Z" fill="#E6E7E8"/>
<path d="M54.8207 57.5728L127.618 75.7626C129.28 76.1782 130.942 76.4237 133.284 74.686C135.627 72.9482 140.821 68.8116 142.767 67.0361C144.504 65.4494 144.448 63.5039 141.425 62.7672C138.403 62.0305 72.8216 46.5229 72.8216 46.5229C71.1783 46.164 69.4783 46.4096 68.0239 47.2218L54.3107 53.6817C52.6296 54.6073 52.9696 57.1195 54.8396 57.5728H54.8207Z" fill="#E6E7E8"/>
<path d="M18.1385 97.8058C17.1941 97.8058 16.2685 97.3336 15.7396 96.4647C14.9085 95.1425 15.3241 93.3858 16.6463 92.5547L41.9761 76.726C43.2983 75.8949 45.0549 76.3104 45.886 77.6326C46.7171 78.9548 46.3016 80.7115 44.9794 81.5426L19.6496 97.3713C19.1774 97.6547 18.6674 97.8058 18.1574 97.8058H18.1385Z" fill="#E6E7E8"/>
<path d="M79.9994 108.912C79.0928 108.912 78.205 108.478 77.6572 107.666C76.7883 106.362 77.1283 104.606 78.4128 103.737L101.438 88.1725C102.741 87.2848 104.498 87.6437 105.367 88.9281C106.236 90.2125 105.896 91.9881 104.611 92.8569L81.5861 108.421C81.095 108.742 80.5472 108.912 79.9994 108.912Z" fill="#E6E7E8"/>
<path d="M109.881 85.0936C108.955 85.0936 108.049 84.6403 107.501 83.8092C106.651 82.5059 107.01 80.7492 108.313 79.8804L122.706 70.4549C124.01 69.6049 125.766 69.9638 126.635 71.2671C127.485 72.5704 127.126 74.3271 125.823 75.196L111.43 84.6214C110.958 84.9425 110.41 85.0748 109.881 85.0748V85.0936Z" fill="#E6E7E8"/>
<path d="M89.6325 17.4154C89.6325 16.2065 88.7825 15.1676 87.6114 14.941L9.77097 0.0566719C9.16653 -0.0566604 8.52431 0.0377832 7.99543 0.321114L2.32881 3.3622C1.44104 3.83441 0.874381 4.77885 0.874381 5.77995V20.2298C0.874381 21.042 1.42215 21.7409 2.21548 21.9298L9.10986 23.5542V40.2141C9.10986 40.2141 8.29765 40.1007 7.82543 40.233C7.35321 40.3652 0.817715 43.6707 0.817715 43.6707C0.364385 43.8974 0.0810547 44.3696 0.0810547 44.8796L0.213276 60.9539C0.213276 61.6905 0.723271 62.3328 1.42215 62.5405L9.09097 64.6938V95.3313L1.42215 99.6946C-0.29672 100.677 -0.0700551 102.358 1.42215 102.849L10.5265 105.909C11.5087 106.23 12.5854 106.098 13.4543 105.55L25.7697 97.7869C27.1864 96.8991 26.8841 94.7269 25.2597 94.2736L17.4965 92.0636V66.9416L68.7415 80.617V108.402L60.1661 113.88C59.2594 114.466 59.3916 116.392 60.3927 116.789L69.7237 119.792C70.4604 120.076 71.6315 120.151 72.2548 119.679L86.0625 110.48C86.8369 109.913 86.7236 107.892 85.7792 107.666L77.1659 105.55V82.8837L81.4725 83.8659C81.9825 83.9792 82.5114 83.9037 82.9458 83.6581L86.8369 81.5237C87.7625 81.0137 88.3291 80.0693 88.3291 79.0115V59.1028C88.3291 57.6106 87.2714 56.345 85.798 56.0617L77.147 54.4562V39.213C79.0548 39.6474 81.4536 40.1763 82.6814 40.4596C83.1914 40.573 83.7392 40.4785 84.1925 40.2141L88.3858 37.6641C89.1036 37.2297 89.538 36.4552 89.538 35.6241L89.5758 17.4154H89.6325Z" fill="black"/>
<path d="M81.0004 19.8709L64.4728 33.3952L54.084 31.1286L69.875 18.1898L81.0004 19.8709Z" fill="white"/>
<path d="M71.6128 38.2874L74.3705 39.0807V55.0039C73.8794 57.2328 71.1406 56.7984 71.5939 54.3617C71.6317 54.1162 71.6128 54.7584 71.6128 38.2874Z" fill="white"/>
<path d="M68.7793 37.2863V52.6995L17.5342 41.9896V25.4998L68.7793 37.2863Z" fill="white"/>
<path d="M58.2581 15.7532L43.2605 28.5408L34.4395 26.482L48.2282 13.8454L58.2581 15.7532Z" fill="white"/>
<path d="M36.7253 11.6543L23.3143 23.9131L14.9844 22.0053L28.0931 9.99213L36.7253 11.6543Z" fill="white"/>
<path d="M3.95312 19.3987V14.1476L11.8675 6.89438L16.6086 7.80104L3.95312 19.3987Z" fill="white"/>
<path d="M14.701 25.1409V42.1785C14.3044 43.3685 13.1899 43.1607 12.9633 43.1041C12.7177 43.0474 11.5655 42.6885 11.9055 41.3096C11.9244 41.1963 11.9622 24.3476 11.9622 24.3476L14.701 25.1409Z" fill="white"/>
<path d="M3.4053 60.1794L3.34863 53.795L10.9797 47.8451L16.4385 49.0162L3.4053 60.1794Z" fill="white"/>
<path d="M11.8674 96.5969L11.943 65.4305L14.7007 66.1671L14.6252 95.6524C14.6252 96.1624 14.5496 97.3524 13.4163 97.9946C12.283 98.6368 11.8296 97.258 11.8674 96.5969Z" fill="white"/>
<path d="M14.3418 63.1639L27.8472 51.6229L37.2916 53.7006L22.5962 65.355L14.3418 63.1639Z" fill="white"/>
<path d="M33.6084 68.3016L47.8505 56.1561L57.0304 58.3283L42.8828 70.5871L33.6084 68.3016Z" fill="white"/>
<path d="M74.3706 110.971C74.3706 112.577 71.6128 112.577 71.6128 110.971V81.3726L74.3706 82.1092V110.971Z" fill="white"/>
<path d="M81.1515 80.9948L74.4082 79.2004L81.2648 73.836L81.1515 80.9948Z" fill="white"/>
<path d="M80.6038 63.2017L63.8684 76.1215L53.6685 73.9871L69.3839 61.1617L80.6038 63.2017Z" fill="white"/>
<path d="M75.5791 35.9452L82.6057 30.1653L82.5113 37.4941L75.5791 35.9452Z" fill="white"/>
</g>
<defs>
<clipPath id="clip0_12_821">
<rect width="143.838" height="120" fill="white" transform="translate(0.0810547)"/>
</clipPath>
</defs>
</svg>
